<svg xmlns="http://www.w3.org/2000/svg" xmlns:xlink="http://www.w3.org/1999/xlink" xmlns:s="https://github.com/nturley/netlistsvg" width="778" height="812">
  <style>svg {
    stroke:#000;
    fill:none;
  }
  text {
    fill:#000;
    stroke:none;
    font-size:10px;
    font-weight: bold;
    font-family: "Courier New", monospace;
  }
  .nodelabel {
    text-anchor: middle;
  }
  .inputPortLabel {
    text-anchor: end;
  }
  .splitjoinBody {
    fill:#000;
  }</style>
  <g s:type="generic" transform="translate(401,756)" s:width="30" s:height="40" id="cell_$auto$opt_reduce.cc:129:opt_pmux$62">
    <text x="15" y="-4" class="nodelabel cell_$auto$opt_reduce.cc:129:opt_pmux$62" s:attribute="ref">$reduce_or</text>
    <rect width="30" height="20" s:generic="body" class="cell_$auto$opt_reduce.cc:129:opt_pmux$62"/>
    <g transform="translate(0,10)" s:x="0" s:y="10" s:pid="in0" id="port_$auto$opt_reduce.cc:129:opt_pmux$62~A">
      <text x="-3" y="-4" class="inputPortLabel cell_$auto$opt_reduce.cc:129:opt_pmux$62">A</text>
    </g>
    <g transform="translate(30,10)" s:x="30" s:y="10" s:pid="out0" id="port_$auto$opt_reduce.cc:129:opt_pmux$62~Y">
      <text x="5" y="-4" style="fill:#000; stroke:none" class="cell_$auto$opt_reduce.cc:129:opt_pmux$62">Y</text>
    </g>
  </g>
  <g s:type="generic" transform="translate(102,680.5)" s:width="30" s:height="40" id="cell_$procdff$61">
    <text x="15" y="-4" class="nodelabel cell_$procdff$61" s:attribute="ref">$adff</text>
    <rect width="30" height="60" s:generic="body" class="cell_$procdff$61"/>
    <g transform="translate(0,10)" s:x="0" s:y="10" s:pid="in0" id="port_$procdff$61~ARST">
      <text x="-3" y="-4" class="inputPortLabel cell_$procdff$61">ARST</text>
    </g>
    <g transform="translate(0,30)" s:x="0" s:y="10" s:pid="in0" id="port_$procdff$61~CLK">
      <text x="-3" y="-4" class="inputPortLabel cell_$procdff$61">CLK</text>
    </g>
    <g transform="translate(0,50)" s:x="0" s:y="10" s:pid="in0" id="port_$procdff$61~D">
      <text x="-3" y="-4" class="inputPortLabel cell_$procdff$61">D</text>
    </g>
    <g transform="translate(30,10)" s:x="30" s:y="10" s:pid="out0" id="port_$procdff$61~Q">
      <text x="5" y="-4" style="fill:#000; stroke:none" class="cell_$procdff$61">Q</text>
    </g>
  </g>
  <g s:type="mux" transform="translate(666.6666666666666,36)" s:width="20" s:height="40" id="cell_$procmux$10">
    <s:alias val="$pmux"/>
    <s:alias val="$mux"/>
    <s:alias val="$_MUX_"/>
    <path d="M0,0 L20,10 L20,30 L0,40 Z" class="cell_$procmux$10"/>
    <g s:x="0" s:y="10" s:pid="A"/>
    <g s:x="0" s:y="30" s:pid="B"/>
    <g s:x="10" s:y="35" s:pid="S"/>
    <g s:x="20" s:y="20" s:pid="Y"/>
  </g>
  <g s:type="mux" transform="translate(462,500)" s:width="20" s:height="40" id="cell_$procmux$14">
    <s:alias val="$pmux"/>
    <s:alias val="$mux"/>
    <s:alias val="$_MUX_"/>
    <path d="M0,0 L20,10 L20,30 L0,40 Z" class="cell_$procmux$14"/>
    <g s:x="0" s:y="10" s:pid="A"/>
    <g s:x="0" s:y="30" s:pid="B"/>
    <g s:x="10" s:y="35" s:pid="S"/>
    <g s:x="20" s:y="20" s:pid="Y"/>
  </g>
  <g s:type="mux" transform="translate(462,440)" s:width="20" s:height="40" id="cell_$procmux$21">
    <s:alias val="$pmux"/>
    <s:alias val="$mux"/>
    <s:alias val="$_MUX_"/>
    <path d="M0,0 L20,10 L20,30 L0,40 Z" class="cell_$procmux$21"/>
    <g s:x="0" s:y="10" s:pid="A"/>
    <g s:x="0" s:y="30" s:pid="B"/>
    <g s:x="10" s:y="35" s:pid="S"/>
    <g s:x="20" s:y="20" s:pid="Y"/>
  </g>
  <g s:type="eq" transform="translate(460.3333333333333,686)" s:width="25" s:height="25" id="cell_$procmux$24_CMP0">
    <s:alias val="$eq"/>
    <circle r="12.5" cx="12.5" cy="12.5" class="cell_$procmux$24_CMP0"/>
    <line x1="7.5" x2="17.5" y1="10" y2="10" class="cell_$procmux$24_CMP0"/>
    <line x1="7.5" x2="17.5" y1="15" y2="15" class="cell_$procmux$24_CMP0"/>
    <g s:x="3" s:y="5" s:pid="A"/>
    <g s:x="3" s:y="20" s:pid="B"/>
    <g s:x="25" s:y="12.5" s:pid="Y"/>
  </g>
  <g s:type="eq" transform="translate(208,764)" s:width="25" s:height="25" id="cell_$procmux$32_CMP0">
    <s:alias val="$eq"/>
    <circle r="12.5" cx="12.5" cy="12.5" class="cell_$procmux$32_CMP0"/>
    <line x1="7.5" x2="17.5" y1="10" y2="10" class="cell_$procmux$32_CMP0"/>
    <line x1="7.5" x2="17.5" y1="15" y2="15" class="cell_$procmux$32_CMP0"/>
    <g s:x="3" s:y="5" s:pid="A"/>
    <g s:x="3" s:y="20" s:pid="B"/>
    <g s:x="25" s:y="12.5" s:pid="Y"/>
  </g>
  <g s:type="mux" transform="translate(462,344)" s:width="20" s:height="40" id="cell_$procmux$38">
    <s:alias val="$pmux"/>
    <s:alias val="$mux"/>
    <s:alias val="$_MUX_"/>
    <path d="M0,0 L20,10 L20,30 L0,40 Z" class="cell_$procmux$38"/>
    <g s:x="0" s:y="10" s:pid="A"/>
    <g s:x="0" s:y="30" s:pid="B"/>
    <g s:x="10" s:y="35" s:pid="S"/>
    <g s:x="20" s:y="20" s:pid="Y"/>
  </g>
  <g s:type="eq" transform="translate(460.3333333333333,626)" s:width="25" s:height="25" id="cell_$procmux$41_CMP0">
    <s:alias val="$eq"/>
    <circle r="12.5" cx="12.5" cy="12.5" class="cell_$procmux$41_CMP0"/>
    <line x1="7.5" x2="17.5" y1="10" y2="10" class="cell_$procmux$41_CMP0"/>
    <line x1="7.5" x2="17.5" y1="15" y2="15" class="cell_$procmux$41_CMP0"/>
    <g s:x="3" s:y="5" s:pid="A"/>
    <g s:x="3" s:y="20" s:pid="B"/>
    <g s:x="25" s:y="12.5" s:pid="Y"/>
  </g>
  <g s:type="mux" transform="translate(462,163)" s:width="20" s:height="40" id="cell_$procmux$48">
    <s:alias val="$pmux"/>
    <s:alias val="$mux"/>
    <s:alias val="$_MUX_"/>
    <path d="M0,0 L20,10 L20,30 L0,40 Z" class="cell_$procmux$48"/>
    <g s:x="0" s:y="10" s:pid="A"/>
    <g s:x="0" s:y="30" s:pid="B"/>
    <g s:x="10" s:y="35" s:pid="S"/>
    <g s:x="20" s:y="20" s:pid="Y"/>
  </g>
  <g s:type="not" transform="translate(487.5,571)" s:width="30" s:height="20" id="cell_$procmux$51_CMP0">
    <s:alias val="$_NOT_"/>
    <s:alias val="$not"/>
    <s:alias val="$logic_not"/>
    <path d="M0,0 L0,20 L20,10 Z" class="cell_$procmux$51_CMP0"/>
    <circle cx="23" cy="10" r="3" class="cell_$procmux$51_CMP0"/>
    <g s:x="0" s:y="10" s:pid="A"/>
    <g s:x="25" s:y="10" s:pid="Y"/>
  </g>
  <g s:type="mux" transform="translate(726,400)" s:width="20" s:height="40" id="cell_$procmux$53">
    <s:alias val="$pmux"/>
    <s:alias val="$mux"/>
    <s:alias val="$_MUX_"/>
    <path d="M0,0 L20,10 L20,30 L0,40 Z" class="cell_$procmux$53"/>
    <g s:x="0" s:y="10" s:pid="A"/>
    <g s:x="0" s:y="30" s:pid="B"/>
    <g s:x="10" s:y="35" s:pid="S"/>
    <g s:x="20" s:y="20" s:pid="Y"/>
  </g>
  <g s:type="eq" transform="translate(208,656)" s:width="25" s:height="25" id="cell_$procmux$54_CMP0">
    <s:alias val="$eq"/>
    <circle r="12.5" cx="12.5" cy="12.5" class="cell_$procmux$54_CMP0"/>
    <line x1="7.5" x2="17.5" y1="10" y2="10" class="cell_$procmux$54_CMP0"/>
    <line x1="7.5" x2="17.5" y1="15" y2="15" class="cell_$procmux$54_CMP0"/>
    <g s:x="3" s:y="5" s:pid="A"/>
    <g s:x="3" s:y="20" s:pid="B"/>
    <g s:x="25" s:y="12.5" s:pid="Y"/>
  </g>
  <g s:type="inputExt" transform="translate(12,701)" s:width="30" s:height="20" id="cell_clk">
    <text x="15" y="-4" class="nodelabel cell_clk" s:attribute="ref">clk</text>
    <s:alias val="$_inputExt_"/>
    <path d="M0,0 L0,20 L15,20 L30,10 L15,0 Z" class="cell_clk"/>
    <g s:x="28" s:y="10" s:pid="Y"/>
  </g>
  <g s:type="inputExt" transform="translate(12,636)" s:width="30" s:height="20" id="cell_reset">
    <text x="15" y="-4" class="nodelabel cell_reset" s:attribute="ref">reset</text>
    <s:alias val="$_inputExt_"/>
    <path d="M0,0 L0,20 L15,20 L30,10 L15,0 Z" class="cell_reset"/>
    <g s:x="28" s:y="10" s:pid="Y"/>
  </g>
  <g s:type="inputExt" transform="translate(268,395)" s:width="30" s:height="20" id="cell_seq_in">
    <text x="15" y="-4" class="nodelabel cell_seq_in" s:attribute="ref">seq_in</text>
    <s:alias val="$_inputExt_"/>
    <path d="M0,0 L0,20 L15,20 L30,10 L15,0 Z" class="cell_seq_in"/>
    <g s:x="28" s:y="10" s:pid="Y"/>
  </g>
  <g s:type="outputExt" transform="translate(726,46)" s:width="30" s:height="20" id="cell_out">
    <text x="15" y="-4" class="nodelabel cell_out" s:attribute="ref">out</text>
    <s:alias val="$_outputExt_"/>
    <path d="M30,0 L30,20 L15,20 L0,10 L15,0 Z" class="cell_out"/>
    <g s:x="0" s:y="10" s:pid="A"/>
  </g>
  <g s:type="constant" transform="translate(268,118)" s:width="30" s:height="20" id="cell_0">
    <text x="15" y="-4" class="nodelabel cell_0" s:attribute="ref">0</text>
    <s:alias val="$_constant_"/>
    <rect width="30" height="20" class="cell_0"/>
    <g s:x="30" s:y="10" s:pid="Y"/>
  </g>
  <g s:type="constant" transform="translate(268,183)" s:width="30" s:height="20" id="cell_1">
    <text x="15" y="-4" class="nodelabel cell_1" s:attribute="ref">1</text>
    <s:alias val="$_constant_"/>
    <rect width="30" height="20" class="cell_1"/>
    <g s:x="30" s:y="10" s:pid="Y"/>
  </g>
  <g s:type="constant" transform="translate(268,313)" s:width="30" s:height="20" id="cell_00">
    <text x="15" y="-4" class="nodelabel cell_00" s:attribute="ref">00</text>
    <s:alias val="$_constant_"/>
    <rect width="30" height="20" class="cell_00"/>
    <g s:x="30" s:y="10" s:pid="Y"/>
  </g>
  <g s:type="constant" transform="translate(268,520)" s:width="30" s:height="20" id="cell_11">
    <text x="15" y="-4" class="nodelabel cell_11" s:attribute="ref">11</text>
    <s:alias val="$_constant_"/>
    <rect width="30" height="20" class="cell_11"/>
    <g s:x="30" s:y="10" s:pid="Y"/>
  </g>
  <g s:type="constant" transform="translate(102,22)" s:width="30" s:height="20" id="cell_100">
    <text x="15" y="-4" class="nodelabel cell_100" s:attribute="ref">100</text>
    <s:alias val="$_constant_"/>
    <rect width="30" height="20" class="cell_100"/>
    <g s:x="30" s:y="10" s:pid="Y"/>
  </g>
  <g s:type="constant" transform="translate(268,460)" s:width="30" s:height="20" id="cell_001">
    <text x="15" y="-4" class="nodelabel cell_001" s:attribute="ref">001</text>
    <s:alias val="$_constant_"/>
    <rect width="30" height="20" class="cell_001"/>
    <g s:x="30" s:y="10" s:pid="Y"/>
  </g>
  <g s:type="constant" transform="translate(102,87)" s:width="30" s:height="20" id="cell_10">
    <text x="15" y="-4" class="nodelabel cell_10" s:attribute="ref">10</text>
    <s:alias val="$_constant_"/>
    <rect width="30" height="20" class="cell_10"/>
    <g s:x="30" s:y="10" s:pid="Y"/>
  </g>
  <g s:type="constant" transform="translate(268,248)" s:width="30" s:height="20" id="cell_01">
    <text x="15" y="-4" class="nodelabel cell_01" s:attribute="ref">01</text>
    <s:alias val="$_constant_"/>
    <rect width="30" height="20" class="cell_01"/>
    <g s:x="30" s:y="10" s:pid="Y"/>
  </g>
  <g s:type="constant" transform="translate(661,153)" s:width="30" s:height="20" id="cell_000">
    <text x="15" y="-4" class="nodelabel cell_000" s:attribute="ref">000</text>
    <s:alias val="$_constant_"/>
    <rect width="30" height="20" class="cell_000"/>
    <g s:x="30" s:y="10" s:pid="Y"/>
  </g>
  <g s:type="join" transform="translate(281,746)" s:width="4" s:height="40" id="cell_$join$,6,7,">
    <rect width="5" height="40" class="splitjoinBody" s:generic="body"/>
    <s:alias val="$_join_"/>
    <g s:x="5" s:y="20" s:pid="out"/>
    <g transform="translate(0,10)" s:x="0" s:y="10" s:pid="in0">
      <text x="-3" y="-4" class="inputPortLabel">0</text>
    </g>
    <g transform="translate(0,30)" s:x="0" s:y="10" s:pid="in0">
      <text x="-3" y="-4" class="inputPortLabel">1</text>
    </g>
  </g>
  <g s:type="join" transform="translate(670,409.5)" s:width="4" s:height="40" id="cell_$join$,24,28,29,21,22,26,17,18,19,15,16,26,">
    <rect width="5" height="140" class="splitjoinBody" s:generic="body"/>
    <s:alias val="$_join_"/>
    <g s:x="5" s:y="20" s:pid="out"/>
    <g transform="translate(0,10)" s:x="0" s:y="10" s:pid="in0">
      <text x="-3" y="-4" class="inputPortLabel">0</text>
    </g>
    <g transform="translate(0,30)" s:x="0" s:y="10" s:pid="in0">
      <text x="-3" y="-4" class="inputPortLabel">1:2</text>
    </g>
    <g transform="translate(0,50)" s:x="0" s:y="10" s:pid="in0">
      <text x="-3" y="-4" class="inputPortLabel">3:4</text>
    </g>
    <g transform="translate(0,70)" s:x="0" s:y="10" s:pid="in0">
      <text x="-3" y="-4" class="inputPortLabel">5</text>
    </g>
    <g transform="translate(0,90)" s:x="0" s:y="10" s:pid="in0">
      <text x="-3" y="-4" class="inputPortLabel">6:8</text>
    </g>
    <g transform="translate(0,110)" s:x="0" s:y="10" s:pid="in0">
      <text x="-3" y="-4" class="inputPortLabel">9:10</text>
    </g>
    <g transform="translate(0,130)" s:x="0" s:y="10" s:pid="in0">
      <text x="-3" y="-4" class="inputPortLabel">11</text>
    </g>
  </g>
  <g s:type="join" transform="translate(671,648)" s:width="4" s:height="40" id="cell_$join$,25,23,20,8,">
    <rect width="5" height="80" class="splitjoinBody" s:generic="body"/>
    <s:alias val="$_join_"/>
    <g s:x="5" s:y="20" s:pid="out"/>
    <g transform="translate(0,10)" s:x="0" s:y="10" s:pid="in0">
      <text x="-3" y="-4" class="inputPortLabel">0</text>
    </g>
    <g transform="translate(0,30)" s:x="0" s:y="10" s:pid="in0">
      <text x="-3" y="-4" class="inputPortLabel">1</text>
    </g>
    <g transform="translate(0,50)" s:x="0" s:y="10" s:pid="in0">
      <text x="-3" y="-4" class="inputPortLabel">2</text>
    </g>
    <g transform="translate(0,70)" s:x="0" s:y="10" s:pid="in0">
      <text x="-3" y="-4" class="inputPortLabel">3</text>
    </g>
  </g>
  <line x1="287" x2="401" y1="766.5" y2="766.5" class="net_6,7"/>
  <line x1="40" x2="52" y1="646" y2="646" class="net_3"/>
  <line x1="52" x2="52" y1="646" y2="691" class="net_3"/>
  <line x1="52" x2="102" y1="691" y2="691" class="net_3"/>
  <line x1="40" x2="102" y1="711" y2="711" class="net_2"/>
  <line x1="746" x2="766" y1="420" y2="420" class="net_9,10,11"/>
  <line x1="766" x2="766" y1="420" y2="799" class="net_9,10,11"/>
  <line x1="766" x2="52" y1="799" y2="799" class="net_9,10,11"/>
  <line x1="52" x2="52" y1="799" y2="731" class="net_9,10,11"/>
  <line x1="52" x2="102" y1="731" y2="731" class="net_9,10,11"/>
  <line x1="298" x2="354" y1="128" y2="128" class="net_26"/>
  <line x1="354" x2="354" y1="128" y2="46" class="net_26"/>
  <circle cx="354" cy="128" r="2" style="fill:#000" class="net_26"/>
  <line x1="354" x2="666.6666666666666" y1="46" y2="46" class="net_26"/>
  <line x1="298" x2="354" y1="128" y2="128" class="net_26"/>
  <line x1="354" x2="354" y1="128" y2="173" class="net_26"/>
  <circle cx="354" cy="173" r="2" style="fill:#000" class="net_26"/>
  <line x1="354" x2="462" y1="173" y2="173" class="net_26"/>
  <line x1="298" x2="354" y1="128" y2="128" class="net_26"/>
  <line x1="354" x2="354" y1="128" y2="394" class="net_26"/>
  <line x1="354" x2="631" y1="394" y2="394" class="net_26"/>
  <line x1="631" x2="631" y1="394" y2="480" class="net_26"/>
  <circle cx="354" cy="394" r="2" style="fill:#000" class="net_26"/>
  <line x1="631" x2="670" y1="480" y2="480" class="net_26"/>
  <line x1="298" x2="354" y1="128" y2="128" class="net_26"/>
  <line x1="354" x2="354" y1="128" y2="560" class="net_26"/>
  <line x1="354" x2="670.5" y1="560" y2="560" class="net_26"/>
  <line x1="670.5" x2="670.5" y1="560" y2="540.5" class="net_26"/>
  <line x1="298" x2="334" y1="193" y2="193" class="net_27"/>
  <line x1="334" x2="334" y1="193" y2="66" class="net_27"/>
  <circle cx="334" cy="193" r="2" style="fill:#000" class="net_27"/>
  <line x1="334" x2="666.6666666666666" y1="66" y2="66" class="net_27"/>
  <line x1="298" x2="334" y1="193" y2="193" class="net_27"/>
  <line x1="334" x2="334" y1="193" y2="646" class="net_27"/>
  <line x1="334" x2="463.3333333333333" y1="646" y2="646" class="net_27"/>
  <line x1="298" x2="462" y1="193" y2="193" class="net_27"/>
  <line x1="233" x2="243" y1="668.5" y2="668.5" class="net_6"/>
  <line x1="243" x2="243" y1="668.5" y2="86" class="net_6"/>
  <line x1="243" x2="676.6666666666666" y1="86" y2="86" class="net_6"/>
  <circle cx="243" cy="668.5" r="2" style="fill:#000" class="net_6"/>
  <line x1="676.6666666666666" x2="676.6666666666666" y1="86" y2="71" class="net_6"/>
  <line x1="233" x2="243" y1="668.5" y2="668.5" class="net_6"/>
  <line x1="243" x2="243" y1="668.5" y2="756.5" class="net_6"/>
  <line x1="243" x2="281" y1="756.5" y2="756.5" class="net_6"/>
  <line x1="298" x2="344" y1="323" y2="323" class="net_28,29"/>
  <line x1="344" x2="344" y1="323" y2="510" class="net_28,29"/>
  <circle cx="344" cy="323" r="2" style="fill:#000" class="net_28,29"/>
  <line x1="344" x2="462" y1="510" y2="510" class="net_28,29"/>
  <line x1="298" x2="651" y1="323" y2="323" class="net_28,29"/>
  <line x1="651" x2="651" y1="323" y2="440" class="net_28,29"/>
  <line x1="651" x2="670" y1="440" y2="440" class="net_28,29"/>
  <line x1="298" x2="462" y1="530" y2="530" class="net_30,31"/>
  <line x1="298" x2="314" y1="530" y2="530" class="net_30,31"/>
  <line x1="314" x2="314" y1="530" y2="706" class="net_30,31"/>
  <circle cx="314" cy="530" r="2" style="fill:#000" class="net_30,31"/>
  <line x1="314" x2="463.3333333333333" y1="706" y2="706" class="net_30,31"/>
  <line x1="296" x2="374" y1="405" y2="405" class="net_4"/>
  <line x1="374" x2="374" y1="405" y2="550" class="net_4"/>
  <line x1="374" x2="472" y1="550" y2="550" class="net_4"/>
  <circle cx="374" cy="405" r="2" style="fill:#000" class="net_4"/>
  <line x1="472" x2="472" y1="550" y2="535" class="net_4"/>
  <line x1="296" x2="374" y1="405" y2="405" class="net_4"/>
  <line x1="374" x2="374" y1="405" y2="490" class="net_4"/>
  <line x1="374" x2="472" y1="490" y2="490" class="net_4"/>
  <circle cx="374" cy="490" r="2" style="fill:#000" class="net_4"/>
  <line x1="472" x2="472" y1="490" y2="475" class="net_4"/>
  <line x1="296" x2="472" y1="405" y2="405" class="net_4"/>
  <line x1="472" x2="472" y1="405" y2="379" class="net_4"/>
  <line x1="296" x2="374" y1="405" y2="405" class="net_4"/>
  <line x1="374" x2="374" y1="405" y2="334" class="net_4"/>
  <line x1="374" x2="472" y1="334" y2="334" class="net_4"/>
  <line x1="472" x2="472" y1="334" y2="198" class="net_4"/>
  <line x1="132" x2="198" y1="32" y2="32" class="net_32,33,34"/>
  <line x1="198" x2="198" y1="32" y2="374" class="net_32,33,34"/>
  <line x1="198" x2="314" y1="374" y2="374" class="net_32,33,34"/>
  <line x1="314" x2="314" y1="374" y2="450" class="net_32,33,34"/>
  <circle cx="198" cy="374" r="2" style="fill:#000" class="net_32,33,34"/>
  <line x1="314" x2="462" y1="450" y2="450" class="net_32,33,34"/>
  <line x1="132" x2="198" y1="32" y2="32" class="net_32,33,34"/>
  <line x1="198" x2="198" y1="32" y2="676" class="net_32,33,34"/>
  <line x1="198" x2="211" y1="676" y2="676" class="net_32,33,34"/>
  <line x1="298" x2="462" y1="470" y2="470" class="net_35,36,37"/>
  <line x1="133" x2="463.3333333333333" y1="691" y2="691" class="net_12,13,14"/>
  <line x1="133" x2="188" y1="691" y2="691" class="net_12,13,14"/>
  <line x1="188" x2="188" y1="691" y2="769" class="net_12,13,14"/>
  <circle cx="188" cy="691" r="2" style="fill:#000" class="net_12,13,14"/>
  <line x1="188" x2="211" y1="769" y2="769" class="net_12,13,14"/>
  <line x1="133" x2="344" y1="691" y2="691" class="net_12,13,14"/>
  <line x1="344" x2="344" y1="691" y2="631" class="net_12,13,14"/>
  <circle cx="344" cy="691" r="2" style="fill:#000" class="net_12,13,14"/>
  <line x1="344" x2="463.3333333333333" y1="631" y2="631" class="net_12,13,14"/>
  <line x1="133" x2="253" y1="691" y2="691" class="net_12,13,14"/>
  <line x1="253" x2="253" y1="691" y2="499" class="net_12,13,14"/>
  <line x1="253" x2="324" y1="499" y2="499" class="net_12,13,14"/>
  <line x1="324" x2="324" y1="499" y2="581" class="net_12,13,14"/>
  <circle cx="253" cy="691" r="2" style="fill:#000" class="net_12,13,14"/>
  <line x1="324" x2="487.5" y1="581" y2="581" class="net_12,13,14"/>
  <line x1="133" x2="188" y1="691" y2="691" class="net_12,13,14"/>
  <line x1="188" x2="188" y1="691" y2="661" class="net_12,13,14"/>
  <line x1="188" x2="211" y1="661" y2="661" class="net_12,13,14"/>
  <line x1="132" x2="178" y1="97" y2="97" class="net_40,41"/>
  <line x1="178" x2="178" y1="97" y2="784" class="net_40,41"/>
  <circle cx="178" cy="97" r="2" style="fill:#000" class="net_40,41"/>
  <line x1="178" x2="211" y1="784" y2="784" class="net_40,41"/>
  <line x1="132" x2="384" y1="97" y2="97" class="net_40,41"/>
  <line x1="384" x2="384" y1="97" y2="354" class="net_40,41"/>
  <line x1="384" x2="462" y1="354" y2="354" class="net_40,41"/>
  <line x1="298" x2="364" y1="258" y2="258" class="net_44,45"/>
  <line x1="364" x2="364" y1="258" y2="374" class="net_44,45"/>
  <line x1="364" x2="462" y1="374" y2="374" class="net_44,45"/>
  <line x1="691" x2="701" y1="163" y2="163" class="net_49,50,51"/>
  <line x1="701" x2="701" y1="163" y2="410" class="net_49,50,51"/>
  <line x1="701" x2="726" y1="410" y2="410" class="net_49,50,51"/>
  <line x1="676" x2="726" y1="430" y2="430" class="net_24,28,29,21,22,26,17,18,19,15,16,26"/>
  <line x1="677" x2="736" y1="668.5" y2="668.5" class="net_25,23,20,8"/>
  <line x1="736" x2="736" y1="668.5" y2="435" class="net_25,23,20,8"/>
  <line x1="686.6666666666666" x2="726" y1="56" y2="56" class="net_5"/>
  <line x1="233" x2="281" y1="776.5" y2="776.5" class="net_7"/>
  <line x1="482" x2="670.5" y1="183" y2="183" class="net_24"/>
  <line x1="670.5" x2="670.5" y1="183" y2="419.5" class="net_24"/>
  <line x1="482" x2="641" y1="364" y2="364" class="net_21,22"/>
  <line x1="641" x2="641" y1="364" y2="460" class="net_21,22"/>
  <line x1="641" x2="670" y1="460" y2="460" class="net_21,22"/>
  <line x1="482" x2="621" y1="460" y2="460" class="net_17,18,19"/>
  <line x1="621" x2="621" y1="460" y2="500" class="net_17,18,19"/>
  <line x1="621" x2="670" y1="500" y2="500" class="net_17,18,19"/>
  <line x1="482" x2="670" y1="520" y2="520" class="net_15,16"/>
  <line x1="512.5" x2="631" y1="581" y2="581" class="net_25"/>
  <line x1="631" x2="631" y1="581" y2="658.5" class="net_25"/>
  <line x1="631" x2="671" y1="658.5" y2="658.5" class="net_25"/>
  <line x1="485.3333333333333" x2="621" y1="638.5" y2="638.5" class="net_23"/>
  <line x1="621" x2="621" y1="638.5" y2="678.5" class="net_23"/>
  <line x1="621" x2="671" y1="678.5" y2="678.5" class="net_23"/>
  <line x1="485.3333333333333" x2="671" y1="698.5" y2="698.5" class="net_20"/>
  <line x1="432" x2="671.5" y1="766.5" y2="766.5" class="net_8"/>
  <line x1="671.5" x2="671.5" y1="766.5" y2="719" class="net_8"/>
</svg>
